<?xml version="1.0" encoding="UTF-8" standalone="no"?>
<svg
   xmlns:dc="http://purl.org/dc/elements/1.1/"
   xmlns:cc="http://creativecommons.org/ns#"
   xmlns:rdf="http://www.w3.org/1999/02/22-rdf-syntax-ns#"
   xmlns:svg="http://www.w3.org/2000/svg"
   xmlns="http://www.w3.org/2000/svg"
   viewBox="0 0 548 244"
   height="244"
   width="548"
   xml:space="preserve"
   id="svg2"
   version="1.1"><metadata
     id="metadata8"><rdf:RDF><cc:Work
         rdf:about=""><dc:format>image/svg+xml</dc:format><dc:type
           rdf:resource="http://purl.org/dc/dcmitype/StillImage" /></cc:Work></rdf:RDF></metadata><defs
     id="defs6"><clipPath
       id="clipPath20"
       clipPathUnits="userSpaceOnUse"><path
         style="clip-rule:evenodd"
         id="path18"
         d="m 2735.61,1636.13 c 706.71,0 1280.7,-568.71 1290.12,-1273.978 H 1445.49 c 9.42,705.268 583.4,1273.978 1290.12,1273.978 z m 477.17,-462.92 157.93,1.59 0.13,9.33 -133.77,3.83 z m 21.72,-5.53 -21.73,-16.21 136.19,3.11 0.16,9.27 z m -22.8,25.21 c 60.76,1.42 115.91,0.24 174.46,1.25 l 0.13,9.36 -144.62,6.3 z m -237.5,-136.15 -2.04,-4.03 7.77,-4.59 14.16,20.63 c 16.62,19.37 45.32,39.73 69.77,46.89 55.07,16.13 104.36,9.07 149.21,-27.6 l 22.85,-23.74 39.72,0.01 v 4.83 c 0,10.94 -33.89,42.9 -42.84,50.64 -25.93,22.45 -65.8,33.18 -99.62,33.18 -38.75,0 -72.63,-9.67 -102.47,-30.3 -24.1,-16.64 -43.3,-39.7 -56.51,-65.92 z m 552.99,228.37 c -4.03,0.44 -5.89,0.58 -9.58,0.58 v -3.89 c -5.76,-10.94 -41.47,-35.8 -50.36,-41.75 l -8.08,-5.4 9.19,-3.17 c 34.82,-12.02 46.6,-50.25 51.35,-82.97 l 0.65,-4.47 9.02,0.72 c -0.73,46.79 -1.44,93.57 -2.19,140.35 z M 2016.6,1068.76 c 16.63,19.37 45.31,39.72 69.76,46.88 55.08,16.13 104.37,9.08 149.21,-27.6 l 22.85,-23.74 44.12,0.01 -19.34,27.89 c -10.26,15.38 -27.87,29.26 -46.31,39.58 -29.13,16.3 -66.32,23.22 -99.48,20.43 -32.58,-2.75 -61.54,-13.08 -87.42,-31.83 -21.36,-15.48 -23.7,-20.44 -38.31,-40.57 l -17.01,-27.1 7.77,-4.59 z m 1219.32,229.9 c -29.09,9 -58.33,17.52 -87.72,25.45 -170.11,45.88 -370.47,79.45 -544.86,46.26 -74.28,-14.14 -187.03,-52.21 -251.73,-91.03 -10.95,-6.57 -21.62,-13.41 -31.97,-20.91 -2.56,-1.86 -7.48,-5.86 -10.45,-6.82 -4.03,-1.32 -20.9,-0.13 -25.55,-0.07 -33.2,0.34 -67.19,-2.18 -100.23,-5.07 -90.65,-7.9 -219.5,-28.65 -299.18,-72.55 l -30.66,-17.28 3.85,-8.12 c 20.34,6.1 40.81,11.45 61.18,16.74 93.29,24.21 166.7,45.41 265.84,52.38 l 131.07,6.48 1.18,0.88 c 72.76,54.55 170.9,87.36 258.24,109.96 119.78,31 281.05,20.89 402.03,-2.32 l 101.5,-21.03 154.19,-42.13 c 81.86,-27.15 181.62,-39.9 261.97,-1.25 l 3.88,1.86 -2.81,8.12 -26.49,-5.83 c -78.92,-18.53 -158.14,1.23 -233.28,26.28 z m -780.82,-94.03 c 49.45,53.42 151.15,94.51 221,98.54 l 4.65,0.26 -0.23,9.34 -4.66,0.04 c -110.94,1.05 -210.97,-44.83 -289.35,-121.93 l -8.41,-8.27 h 11.79 c 115.15,0 230.3,0 345.45,0 h 4.72 l 0.21,9.44 z m 329.54,85.14 c 98.08,3.39 226.62,-15.03 316.56,-52.18 l 4.14,-1.71 4.02,8.01 -3.86,2.3 c -99.24,59.01 -228.25,77.42 -342.33,76.42 l -5.41,-0.05 16.9,-136.2 c 0.36,-2.5 2.09,-4.61 4.97,-4.57 7.09,0.13 5.17,17.66 5.2,21.78 0.08,12.46 0.06,24.92 0.02,37.39 -0.04,16.26 -0.19,32.54 -0.21,48.81 z" /></clipPath><linearGradient
       id="linearGradient26"
       spreadMethod="pad"
       gradientTransform="matrix(10,0,0,10,-1950,-2380)"
       gradientUnits="userSpaceOnUse"
       y2="394.65302"
       x2="379.66901"
       y1="290.87701"
       x1="553.5"><stop
         id="stop22"
         offset="0"
         style="stop-opacity:1;stop-color:#f4752d" /><stop
         id="stop24"
         offset="1"
         style="stop-opacity:1;stop-color:#fad520" /></linearGradient><clipPath
       id="clipPath42"
       clipPathUnits="userSpaceOnUse"><path
         style="clip-rule:evenodd"
         id="path40"
         d="m 634.645,1503.86 c 0,0 43.82,-64.17 83.683,-189.65 h 30.676 c -32.434,73.06 -71.09,137.93 -114.359,189.65 z m -94.348,316.48 h 14.418 v -198.61 c 16.519,-11.43 32.254,-24.45 46.672,-37.94 73.336,-68.64 141.414,-175.16 194.215,-299.21 l 25.164,55.24 c -22.879,1.93 -38.438,5.84 -38.231,10.37 0.278,6.34 32.414,11.53 71.637,11.53 39.367,0 71.047,-5.19 70.762,-11.53 -0.188,-4.39 -15.051,-8.18 -36.891,-10.17 L 810.531,1248 c 80.699,-206.45 118.61,-453.871 70.957,-655.523 -17.597,-8.743 -35.359,-16.606 -53.293,-24.821 2.602,10.223 5.008,19.926 7.231,30.364 h -73.957 c -2.11,-14.528 -4.231,-39.332 -7.367,-61.313 -20.688,-8.172 -41.594,-14.602 -62.735,-21.715 2.313,15.883 6.203,53.938 9.93,83.028 h -81.473 l -76.972,-85.594 -1.5,-39.203 c -19.493,-3.481 -39.168,-10.379 -59.043,-12.586 l 28.703,707.573 h -92.746 l 0.504,11.2 h 62.48 l 1.426,32.03 h -62.488 l 0.492,11.19 h 92.738 l 18.336,413.6 c 2.867,-1.64 5.715,-3.32 8.543,-5.07 z m 190.387,-547.63 c 4.824,-17.32 9.5,-35.65 13.937,-54.88 h 41.973 c -6.34,18.66 -13.082,36.96 -20.18,54.88 z m 22.863,-96.38 c 3.496,-17.61 6.762,-35.9 9.762,-54.88 h 51.855 c -4.711,18.51 -9.824,36.82 -15.273,54.88 z m 15.683,-96.39 c 2.278,-17.74 4.29,-36.05 6.02,-54.87 h 60.676 c -3.266,18.4 -6.914,36.72 -10.922,54.87 z m 9.286,-96.389 c 1.168,-17.856 2.078,-36.121 2.679,-54.867 h 68.192 c -1.871,18.324 -4.121,36.625 -6.774,54.867 z m 3.496,-96.371 c 0.14,-17.918 0,-36.211 -0.434,-54.887 h 73.969 c -0.445,18.246 -1.297,36.559 -2.567,54.887 z m -1.895,-96.407 c -0.84,-18.003 -1.937,-36.32 -3.359,-54.988 h 77.097 c 1.118,18.195 1.743,36.547 1.958,54.988 z m -6.957,-96.375 c -1.75,-18.039 -3.781,-36.367 -6.113,-54.988 h 76.164 c 2.934,18.09 5.324,36.438 7.223,54.988 z M 589.371,598.02 h -42.676 l -0.531,-47.75 z m -42.211,41.39 h 79.672 l 49.766,54.988 H 547.781 Z m 110.098,0 h 48.906 c 1.801,16.77 3.57,35.172 5.199,54.988 H 707 Z m 59.883,151.363 H 589.406 l -27.711,-44.726 h 153.313 c 0.828,14.394 1.547,29.332 2.133,44.726 z m -154.426,0 h -13.817 l -0.257,-22.703 z m -13.363,41.52 h 39.097 l 34.016,54.887 h -72.5 z m 65.773,0 h 103.203 c 0.344,17.805 0.477,36.125 0.36,54.887 h -69.563 z m -64.695,96.391 h 97.765 l 34.012,54.867 H 551.035 Z m 124.406,0 h 43.172 c -0.481,17.972 -1.203,36.289 -2.231,54.867 h -6.953 z m 33.316,151.256 H 586.023 l -21.328,-38.52 h 147.176 c -1.101,12.76 -2.324,25.61 -3.719,38.52 z m -148.093,0 h -7.938 l -0.176,-14.64 z m -7.465,41.51 h 30.441 l 30.391,54.88 h -60.18 z m 56.418,0 h 94.164 c -2.41,18.19 -5.145,36.51 -8.235,54.88 h -55.546 z m -55.293,96.38 h 82.687 l 27.324,49.34 H 554.289 Z m 108.652,0 h 25 c -2.152,10.91 -4.445,21.82 -6.871,32.73 z m -107.566,96.38 h 109.972 c -24.433,89.15 -58.988,176.67 -107.004,256.75 z m 278.039,24.81 -31.242,-68.7 c 1.414,-3.44 2.804,-6.91 4.199,-10.38 l 66.59,79.03 c -6.121,-0.27 -12.586,-0.42 -19.25,-0.42 -7.059,0 -13.868,0.15 -20.297,0.47 z" /></clipPath><linearGradient
       id="linearGradient48"
       spreadMethod="pad"
       gradientTransform="matrix(10,0,0,10,-1950,-2380)"
       gradientUnits="userSpaceOnUse"
       y2="395.14899"
       x2="236.27901"
       y1="299.431"
       x1="288.224"><stop
         id="stop44"
         offset="0"
         style="stop-opacity:1;stop-color:#f4752d" /><stop
         id="stop46"
         offset="1"
         style="stop-opacity:1;stop-color:#fad520" /></linearGradient></defs><g
     transform="matrix(1.3333333,0,0,-1.3333333,0,244)"
     id="g10"><g
       transform="scale(0.1)"
       id="g12"><g
         id="g14"><g
           clip-path="url(#clipPath20)"
           id="g16"><path
             id="path28"
             style="fill:url(#linearGradient26);fill-opacity:1;fill-rule:nonzero;stroke:none"
             d="m 2735.61,1636.13 c 706.71,0 1280.7,-568.71 1290.12,-1273.978 H 1445.49 c 9.42,705.268 583.4,1273.978 1290.12,1273.978 z m 477.17,-462.92 157.93,1.59 0.13,9.33 -133.77,3.83 z m 21.72,-5.53 -21.73,-16.21 136.19,3.11 0.16,9.27 z m -22.8,25.21 c 60.76,1.42 115.91,0.24 174.46,1.25 l 0.13,9.36 -144.62,6.3 z m -237.5,-136.15 -2.04,-4.03 7.77,-4.59 14.16,20.63 c 16.62,19.37 45.32,39.73 69.77,46.89 55.07,16.13 104.36,9.07 149.21,-27.6 l 22.85,-23.74 39.72,0.01 v 4.83 c 0,10.94 -33.89,42.9 -42.84,50.64 -25.93,22.45 -65.8,33.18 -99.62,33.18 -38.75,0 -72.63,-9.67 -102.47,-30.3 -24.1,-16.64 -43.3,-39.7 -56.51,-65.92 z m 552.99,228.37 c -4.03,0.44 -5.89,0.58 -9.58,0.58 v -3.89 c -5.76,-10.94 -41.47,-35.8 -50.36,-41.75 l -8.08,-5.4 9.19,-3.17 c 34.82,-12.02 46.6,-50.25 51.35,-82.97 l 0.65,-4.47 9.02,0.72 c -0.73,46.79 -1.44,93.57 -2.19,140.35 z M 2016.6,1068.76 c 16.63,19.37 45.31,39.72 69.76,46.88 55.08,16.13 104.37,9.08 149.21,-27.6 l 22.85,-23.74 44.12,0.01 -19.34,27.89 c -10.26,15.38 -27.87,29.26 -46.31,39.58 -29.13,16.3 -66.32,23.22 -99.48,20.43 -32.58,-2.75 -61.54,-13.08 -87.42,-31.83 -21.36,-15.48 -23.7,-20.44 -38.31,-40.57 l -17.01,-27.1 7.77,-4.59 z m 1219.32,229.9 c -29.09,9 -58.33,17.52 -87.72,25.45 -170.11,45.88 -370.47,79.45 -544.86,46.26 -74.28,-14.14 -187.03,-52.21 -251.73,-91.03 -10.95,-6.57 -21.62,-13.41 -31.97,-20.91 -2.56,-1.86 -7.48,-5.86 -10.45,-6.82 -4.03,-1.32 -20.9,-0.13 -25.55,-0.07 -33.2,0.34 -67.19,-2.18 -100.23,-5.07 -90.65,-7.9 -219.5,-28.65 -299.18,-72.55 l -30.66,-17.28 3.85,-8.12 c 20.34,6.1 40.81,11.45 61.18,16.74 93.29,24.21 166.7,45.41 265.84,52.38 l 131.07,6.48 1.18,0.88 c 72.76,54.55 170.9,87.36 258.24,109.96 119.78,31 281.05,20.89 402.03,-2.32 l 101.5,-21.03 154.19,-42.13 c 81.86,-27.15 181.62,-39.9 261.97,-1.25 l 3.88,1.86 -2.81,8.12 -26.49,-5.83 c -78.92,-18.53 -158.14,1.23 -233.28,26.28 z m -780.82,-94.03 c 49.45,53.42 151.15,94.51 221,98.54 l 4.65,0.26 -0.23,9.34 -4.66,0.04 c -110.94,1.05 -210.97,-44.83 -289.35,-121.93 l -8.41,-8.27 h 11.79 c 115.15,0 230.3,0 345.45,0 h 4.72 l 0.21,9.44 z m 329.54,85.14 c 98.08,3.39 226.62,-15.03 316.56,-52.18 l 4.14,-1.71 4.02,8.01 -3.86,2.3 c -99.24,59.01 -228.25,77.42 -342.33,76.42 l -5.41,-0.05 16.9,-136.2 c 0.36,-2.5 2.09,-4.61 4.97,-4.57 7.09,0.13 5.17,17.66 5.2,21.78 0.08,12.46 0.06,24.92 0.02,37.39 -0.04,16.26 -0.19,32.54 -0.21,48.81" /></g></g><path
         id="path30"
         style="fill:#1a1a1a;fill-opacity:1;fill-rule:nonzero;stroke:none"
         d="m 491.586,8.97656 7.492,35.49614 155.391,240.5783 h 98.605 L 806.711,44.4727 799.211,8.97656 H 730.199 L 722.313,56.3047 H 596.098 L 568.492,8.97656 Z M 632.777,117.434 h 78.883 l -16.562,98.601 h -3.95 z M 874.336,74.0508 918.898,285.051 h 74.938 L 952.82,90.6172 c -1.312,-6.3086 -0.394,-10.9766 2.762,-14 3.152,-3.0234 7.492,-4.5352 13.016,-4.5352 h 88.742 c 8.41,0 14.32,1.3125 17.74,3.9414 3.42,2.6289 5.92,7.2344 7.49,13.8047 l 41.42,195.2229 h 74.93 L 1153.17,68.1367 C 1148.7,46.0469 1140.48,30.0117 1128.52,20.0195 1116.56,10.0273 1099.27,5.03125 1076.66,5.03125 H 928.762 c -19.719,0 -34.774,6.57425 -45.16,19.72265 -10.387,13.1445 -13.473,29.582 -9.266,49.2969 z M 1313.88,8.97656 1358.05,218.004 h -100.57 l 14.2,67.047 h 276.07 l -9.07,-43.383 -28.79,-23.664 h -76.91 L 1388.81,8.97656 Z m 254.17,65.07424 31.94,151.8402 c 4.47,21.824 12.76,37.797 24.85,47.922 12.09,10.121 29.32,15.183 51.67,15.183 h 147.89 c 19.72,0 34.77,-6.574 45.16,-19.719 10.39,-13.148 13.48,-29.578 9.27,-49.304 L 1846.88,68.1367 c -4.47,-22.0898 -12.68,-38.125 -24.65,-48.1172 -11.96,-9.9922 -29.25,-14.98825 -51.86,-14.98825 h -147.89 c -19.73,0 -34.78,6.57425 -45.16,19.72265 -10.39,13.1445 -13.48,29.582 -9.27,49.2969 z m 94.25,-1.9688 h 88.74 c 8.42,0 14.34,1.3125 17.75,3.9414 3.42,2.6289 5.92,7.2344 7.5,13.8047 l 24.05,113.5859 c 1.32,6.309 0.4,10.973 -2.76,13.996 -3.15,3.028 -7.49,4.539 -13.01,4.539 h -88.74 c -8.41,0 -14.33,-1.316 -17.75,-3.945 -3.41,-2.629 -5.91,-7.231 -7.49,-13.801 L 1646.54,90.6172 c -1.32,-6.3086 -0.4,-10.9766 2.75,-14 3.16,-3.0234 7.5,-4.5352 13.01,-4.5352" /><path
         id="path32"
         style="fill:#f69729;fill-opacity:1;fill-rule:nonzero;stroke:none"
         d="m 1928.71,8.97656 58.37,276.07444 h 246.49 l -8.67,-41.414 -28.79,-23.664 h -147.9 l -8.68,-41.41 h 126.21 l -13.42,-63.098 h -126.2 l -8.67,-41.4142 h 171.56 L 2175.2,8.97656 Z m 315.31,0 7.88,37.46484 105.7,98.6016 -55.21,102.539 7.88,37.469 h 63.89 l 43.78,-90.711 h 3.95 l 82.42,90.711 h 78.09 l -7.89,-37.469 -97.81,-98.598 63.1,-102.5426 -7.88,-37.46484 h -63.9 l -52.05,90.71094 h -3.95 L 2322.1,8.97656 Z m 368.54,0 58.37,276.07444 h 199.17 c 19.72,0 34.77,-6.574 45.15,-19.719 10.39,-13.148 13.48,-29.582 9.27,-49.297 l -13.4,-65.078 c -4.47,-22.086 -12.69,-38.121 -24.66,-48.113 -11.96,-9.9924 -29.25,-14.9885 -51.85,-14.9885 H 2704.06 L 2687.5,8.97656 Z m 105.7,145.92144 h 97.02 c 8.42,0 14.33,1.321 17.75,3.946 3.42,2.633 5.92,7.234 7.49,13.804 l 5.52,26.821 c 1.32,6.308 0.4,10.976 -2.76,14.004 -3.15,3.019 -7.49,4.531 -13.01,4.531 h -98.6 z m 262.85,-80.8472 31.94,151.8402 c 4.47,21.824 12.75,37.797 24.85,47.922 12.1,10.121 29.31,15.183 51.67,15.183 h 147.89 c 19.73,0 34.78,-6.574 45.17,-19.719 10.38,-13.148 13.47,-29.578 9.26,-49.304 L 3259.95,68.1367 c -4.47,-22.0898 -12.69,-38.125 -24.65,-48.1172 -11.97,-9.9922 -29.25,-14.98825 -51.87,-14.98825 h -147.89 c -19.73,0 -34.78,6.57425 -45.16,19.72265 -10.39,13.1445 -13.48,29.582 -9.27,49.2969 z m 94.25,-1.9688 h 88.75 c 8.41,0 14.33,1.3125 17.75,3.9414 3.42,2.6289 5.91,7.2344 7.49,13.8047 l 24.06,113.5859 c 1.31,6.309 0.39,10.973 -2.76,13.996 -3.16,3.028 -7.49,4.539 -13.02,4.539 h -88.74 c -8.41,0 -14.33,-1.316 -17.75,-3.945 -3.41,-2.629 -5.91,-7.231 -7.49,-13.801 L 3059.59,90.6172 c -1.31,-6.3086 -0.39,-10.9766 2.76,-14 3.16,-3.0234 7.49,-4.5352 13.01,-4.5352 z M 3341.77,8.97656 3400.14,285.051 h 203.11 c 19.72,0 34.78,-6.574 45.16,-19.719 10.39,-13.148 13.47,-29.582 9.27,-49.297 l -9.47,-45.359 c -5.26,-24.715 -17.21,-42.328 -35.89,-52.848 -8.14,-4.734 -16.96,-7.492 -26.42,-8.281 l 41.81,-63.1056 -7.89,-37.46484 h -62.32 l -53.63,94.65644 h -67.05 L 3416.7,8.97656 Z M 3451.02,170.676 h 100.57 c 8.41,0 14.33,1.32 17.75,3.945 3.41,2.629 5.91,7.231 7.49,13.805 l 2.37,11.043 c 1.31,6.308 0.39,10.976 -2.77,14.004 -3.15,3.019 -7.49,4.531 -13.01,4.531 H 3460.88 Z M 3785.26,8.97656 3829.43,218.004 h -100.57 l 14.2,67.047 h 276.07 l -9.07,-43.383 -28.79,-23.664 h -76.91 L 3860.19,8.97656 h -74.93" /><path
         id="path34"
         style="fill:#1a1a1a;fill-opacity:1;fill-rule:nonzero;stroke:none"
         d="m 1779.32,362.152 c -40.15,0 -75.12,6.332 -104.89,19 -29.77,12.661 -53.77,30.422 -71.99,53.282 -18.23,22.859 -29.63,50.195 -34.19,82.011 -4.57,31.817 -1.43,66.875 9.45,105.18 l 97.25,342.879 h 163.1 l -93.84,-330.828 c -9.99,-35.219 -7.15,-63.324 8.52,-84.332 15.65,-21.004 40.17,-31.504 73.54,-31.504 h 127.87 c 33.37,0 63.83,10.5 91.42,31.504 27.58,21.008 46.37,49.113 56.36,84.332 l 93.84,330.828 h 163.1 L 2261.6,621.625 c -10.87,-38.305 -27.61,-73.363 -50.22,-105.18 -22.62,-31.816 -49.53,-59.152 -80.72,-82.011 -31.2,-22.86 -65.43,-40.621 -102.7,-53.282 -37.26,-12.668 -75.65,-19 -115.19,-19 z m 505.05,0 170.86,602.352 h 435.55 c 32.13,0 58.63,-4.016 79.53,-12.047 20.89,-8.031 36.57,-19.148 47.06,-33.359 10.49,-14.211 16.37,-31.047 17.65,-50.504 1.27,-19.465 -1.24,-40.313 -7.55,-62.555 -8.94,-31.508 -22.39,-58.226 -40.35,-80.156 -17.96,-21.934 -38.98,-37.227 -63.05,-45.875 21.37,-7.414 36.52,-23.164 45.43,-47.258 8.93,-24.094 7.96,-55.293 -2.91,-93.598 -15.42,-54.367 -44.79,-97.461 -88.1,-129.273 -43.31,-31.82 -97.41,-47.727 -162.28,-47.727 z m 284.53,241.864 35.23,124.183 h 199.23 c 14.21,0 26.23,3.707 36.06,11.117 9.83,7.418 16.75,18.227 20.78,32.438 4.03,14.207 3.19,24.863 -2.51,31.969 -5.71,7.109 -15.67,10.656 -29.88,10.656 h -252.99 l -85.43,-301.18 h 261.33 c 32.12,0 52.31,14.524 60.55,43.563 4.2,14.824 3.47,26.406 -2.2,34.746 -5.66,8.344 -16.22,12.508 -31.66,12.508 z m 970.23,-241.864 -23.77,92.668 h -282.64 l 105.12,128.809 h 145.49 l -47.92,193.684 -338.32,-415.161 h -178.85 l 465.9,557.871 c 25.09,29.653 53.4,44.481 84.9,44.481 h 37.07 c 31.51,0 51.4,-14.828 59.67,-44.481 L 3715.2,362.152 Z m 236.3,0 170.86,602.352 h 162.17 L 3937.6,362.152 Z M 485.742,1331.13 c -38.004,-0.78 -108.59,-15.27 -144.551,-18.27 34.168,11.09 110.047,34.04 145.661,43.35 z m 102.27,48.01 c 7.105,1.35 14.23,2.65 21.359,3.89 4.238,-12.05 8.258,-24.18 12.07,-36.36 h -33.804 z m 188.258,20.9 c 185.757,5.63 391.61,-15.25 532.12,-85.06 158.9,-78.94 291.07,-223.85 202.2,-435.843 C 1389.2,589.59 904.523,354.871 428.012,354.871 c -166.106,0 -309.246,28.547 -420.16044,77.969 44.31644,-3.965 90.61324,-6.074 138.74244,-6.074 476.504,0 947.696,202.527 1052.426,452.371 34.53,82.347 24.91,159.563 -20.56,226.053 -62.82,91.91 -174.72,143.79 -295.964,177.87 l 22.008,26.12 c 23.937,3.27 51.613,11.41 52.851,39.58 2.047,46.4 -72.875,45.42 -103.183,45.42 -18.297,0 -37.508,-0.89 -55.582,-3.8 -5.055,-0.82 -10.309,-1.89 -15.414,-3.4 -2.274,4.36 -4.571,8.71 -6.906,13.06" /><g
         id="g36"><g
           clip-path="url(#clipPath42)"
           id="g38"><path
             id="path50"
             style="fill:url(#linearGradient48);fill-opacity:1;fill-rule:nonzero;stroke:none"
             d="m 634.645,1503.86 c 0,0 43.82,-64.17 83.683,-189.65 h 30.676 c -32.434,73.06 -71.09,137.93 -114.359,189.65 z m -94.348,316.48 h 14.418 v -198.61 c 16.519,-11.43 32.254,-24.45 46.672,-37.94 73.336,-68.64 141.414,-175.16 194.215,-299.21 l 25.164,55.24 c -22.879,1.93 -38.438,5.84 -38.231,10.37 0.278,6.34 32.414,11.53 71.637,11.53 39.367,0 71.047,-5.19 70.762,-11.53 -0.188,-4.39 -15.051,-8.18 -36.891,-10.17 L 810.531,1248 c 80.699,-206.45 118.61,-453.871 70.957,-655.523 -17.597,-8.743 -35.359,-16.606 -53.293,-24.821 2.602,10.223 5.008,19.926 7.231,30.364 h -73.957 c -2.11,-14.528 -4.231,-39.332 -7.367,-61.313 -20.688,-8.172 -41.594,-14.602 -62.735,-21.715 2.313,15.883 6.203,53.938 9.93,83.028 h -81.473 l -76.972,-85.594 -1.5,-39.203 c -19.493,-3.481 -39.168,-10.379 -59.043,-12.586 l 28.703,707.573 h -92.746 l 0.504,11.2 h 62.48 l 1.426,32.03 h -62.488 l 0.492,11.19 h 92.738 l 18.336,413.6 c 2.867,-1.64 5.715,-3.32 8.543,-5.07 z m 190.387,-547.63 c 4.824,-17.32 9.5,-35.65 13.937,-54.88 h 41.973 c -6.34,18.66 -13.082,36.96 -20.18,54.88 z m 22.863,-96.38 c 3.496,-17.61 6.762,-35.9 9.762,-54.88 h 51.855 c -4.711,18.51 -9.824,36.82 -15.273,54.88 z m 15.683,-96.39 c 2.278,-17.74 4.29,-36.05 6.02,-54.87 h 60.676 c -3.266,18.4 -6.914,36.72 -10.922,54.87 z m 9.286,-96.389 c 1.168,-17.856 2.078,-36.121 2.679,-54.867 h 68.192 c -1.871,18.324 -4.121,36.625 -6.774,54.867 z m 3.496,-96.371 c 0.14,-17.918 0,-36.211 -0.434,-54.887 h 73.969 c -0.445,18.246 -1.297,36.559 -2.567,54.887 z m -1.895,-96.407 c -0.84,-18.003 -1.937,-36.32 -3.359,-54.988 h 77.097 c 1.118,18.195 1.743,36.547 1.958,54.988 z m -6.957,-96.375 c -1.75,-18.039 -3.781,-36.367 -6.113,-54.988 h 76.164 c 2.934,18.09 5.324,36.438 7.223,54.988 z M 589.371,598.02 h -42.676 l -0.531,-47.75 z m -42.211,41.39 h 79.672 l 49.766,54.988 H 547.781 Z m 110.098,0 h 48.906 c 1.801,16.77 3.57,35.172 5.199,54.988 H 707 Z m 59.883,151.363 H 589.406 l -27.711,-44.726 h 153.313 c 0.828,14.394 1.547,29.332 2.133,44.726 z m -154.426,0 h -13.817 l -0.257,-22.703 z m -13.363,41.52 h 39.097 l 34.016,54.887 h -72.5 z m 65.773,0 h 103.203 c 0.344,17.805 0.477,36.125 0.36,54.887 h -69.563 z m -64.695,96.391 h 97.765 l 34.012,54.867 H 551.035 Z m 124.406,0 h 43.172 c -0.481,17.972 -1.203,36.289 -2.231,54.867 h -6.953 z m 33.316,151.256 H 586.023 l -21.328,-38.52 h 147.176 c -1.101,12.76 -2.324,25.61 -3.719,38.52 z m -148.093,0 h -7.938 l -0.176,-14.64 z m -7.465,41.51 h 30.441 l 30.391,54.88 h -60.18 z m 56.418,0 h 94.164 c -2.41,18.19 -5.145,36.51 -8.235,54.88 h -55.546 z m -55.293,96.38 h 82.687 l 27.324,49.34 H 554.289 Z m 108.652,0 h 25 c -2.152,10.91 -4.445,21.82 -6.871,32.73 z m -107.566,96.38 h 109.972 c -24.433,89.15 -58.988,176.67 -107.004,256.75 z m 278.039,24.81 -31.242,-68.7 c 1.414,-3.44 2.804,-6.91 4.199,-10.38 l 66.59,79.03 c -6.121,-0.27 -12.586,-0.42 -19.25,-0.42 -7.059,0 -13.868,0.15 -20.297,0.47" /></g></g></g></g></svg>